<?xml version="1.0" encoding="utf-8"?>
<!-- Generator: Adobe Illustrator 24.3.0, SVG Export Plug-In . SVG Version: 6.00 Build 0)  -->
<svg version="1.1" id="Layer_1" xmlns="http://www.w3.org/2000/svg" xmlns:xlink="http://www.w3.org/1999/xlink" x="0px" y="0px"
	 viewBox="0 0 1000 1000" style="enable-background:new 0 0 1000 1000;" xml:space="preserve">
<style type="text/css">
	.st0{fill:#10C1F2;}
	.st1{fill:#FFFFFF;}
</style>
<rect x="-5.67" y="-7" class="st0" width="1014.67" height="1014.67"/>
<g>
	<path class="st1" d="M237.16,555.09h-56.84c-6.35,0-11.5,5.15-11.5,11.5v0c0,6.35,5.15,11.5,11.5,11.5h56.84
		c6.35,0,11.5-5.15,11.5-11.5v0C248.66,560.24,243.51,555.09,237.16,555.09z"/>
	<path class="st1" d="M248.66,502.08L248.66,502.08c0-6.35-5.15-11.5-11.5-11.5H104.32c-6.35,0-11.5,5.15-11.5,11.5v0
		c0,6.35,5.15,11.5,11.5,11.5h132.84C243.51,513.58,248.66,508.43,248.66,502.08z"/>
	<path class="st1" d="M128.16,481.33h109c6.35,0,11.5-5.15,11.5-11.5s-5.15-11.5-11.5-11.5h-109c-6.35,0-11.5,5.15-11.5,11.5
		S121.82,481.33,128.16,481.33z"/>
	<path class="st1" d="M161.38,449.07h75.79c6.35,0,11.5-5.15,11.5-11.5c0-6.35-5.15-11.5-11.5-11.5h-75.79
		c-6.35,0-11.5,5.15-11.5,11.5C149.88,443.93,155.03,449.07,161.38,449.07z"/>
	<path class="st1" d="M264.18,522.84H128.16c-6.35,0-11.5,5.15-11.5,11.5s5.15,11.5,11.5,11.5h136.02v31.24h24.59V428.51h-24.59
		V522.84z"/>
	<polygon class="st1" points="297.04,469.43 331.51,523.25 297.04,523.25 297.04,542.4 353.08,542.4 353.08,523.25 297.04,440.6 	
		"/>
	<path class="st1" d="M440.32,448.66c4.16,1.75,7.86,4.57,11.09,8.47l16.73-14.92c-5.51-5.37-11.76-9.41-18.75-12.1
		c-6.99-2.69-14.51-4.03-22.58-4.03h-0.2v19.96h0.81C431.85,446.04,436.15,446.92,440.32,448.66z"/>
	<path class="st1" d="M380.04,448.56c-4.71,6.25-8.4,13.84-11.09,22.78c-2.69,8.94-4.03,19.19-4.03,30.74
		c0,11.56,1.34,21.81,4.03,30.74c2.69,8.94,6.38,16.56,11.09,22.88c4.7,6.32,10.35,11.32,16.93,15.02
		c6.58,3.7,13.71,6.02,21.37,6.95v-18.34c-4.03-1.07-7.76-3.02-11.19-5.85c-3.43-2.82-6.45-6.62-9.07-11.39
		c-2.62-4.77-4.67-10.45-6.15-17.03c-1.48-6.58-2.29-14.24-2.42-22.98c0.13-8.73,0.94-16.29,2.42-22.68
		c1.48-6.38,3.53-11.82,6.15-16.33c2.62-4.5,5.64-8.03,9.07-10.58c3.43-2.55,7.16-4.37,11.19-5.44v-20.16
		c-7.66,0.94-14.79,3.23-21.37,6.85C390.39,437.38,384.75,442.31,380.04,448.56z"/>
	<path class="st1" d="M426.61,517h25.2v36.69c-1.08,1.48-2.72,2.62-4.94,3.43c-2.22,0.81-4.57,1.45-7.06,1.92
		c-2.49,0.47-4.91,0.81-7.26,1.01c-2.35,0.2-4.33,0.3-5.95,0.3v17.74h0.2c4.43,0,8.9-0.34,13.41-1.01c4.5-0.67,8.87-1.81,13.1-3.43
		s8.26-3.66,12.1-6.15c3.83-2.48,7.29-5.68,10.38-9.58v-57.45h-49.19V517z"/>
	<path class="st1" d="M541.11,543.71c-2.56-4.64-4.5-10.55-5.85-17.74c-1.35-7.19-2.02-15.96-2.02-26.31v-71.16h-24.59v73.58
		c0,11.96,1.27,22.58,3.83,31.85c2.55,9.27,6.11,17.1,10.68,23.48c4.57,6.38,10.18,11.29,16.83,14.72
		c6.65,3.43,14.08,5.41,22.28,5.95v-19.96c-4.43-0.4-8.44-1.75-11.99-4.03C546.72,551.81,543.66,548.35,541.11,543.71z"/>
	<path class="st1" d="M609.55,557.42c4.64-6.38,8.23-14.21,10.78-23.48c2.55-9.27,3.83-19.89,3.83-31.85v-73.58h-24.39v71.16
		c0,10.48-0.71,19.32-2.12,26.51c-1.41,7.19-3.4,13.07-5.95,17.64c-2.56,4.57-5.61,7.96-9.17,10.18c-3.56,2.22-7.56,3.6-11.99,4.13
		v19.96c8.2-0.54,15.59-2.52,22.17-5.95C599.3,568.71,604.91,563.8,609.55,557.42z"/>
	<rect x="658.84" y="428.51" class="st1" width="24.19" height="148.57"/>
	<path class="st1" d="M702.58,523.45c0.94,0,1.64-0.03,2.12-0.1c0.47-0.07,0.91-0.1,1.31-0.1l28.02,53.82h25.6l-33.87-58.46
		c8.47-3.63,15.18-9.2,20.16-16.73c4.97-7.52,7.46-16.66,7.46-27.42c0-7.12-1.51-13.54-4.54-19.25
		c-3.02-5.71-6.99-10.58-11.89-14.61c-4.91-4.03-10.45-7.06-16.63-9.07c-6.18-2.02-12.43-3.02-18.75-3.02h-10.28v18.34h9.88
		c6.18,0,11.15,0.98,14.92,2.92c3.76,1.95,6.68,4.37,8.77,7.26c2.08,2.89,3.46,5.92,4.13,9.07c0.67,3.16,1.01,5.95,1.01,8.37
		c0,6.05-0.74,11.12-2.22,15.22c-1.48,4.1-3.43,7.29-5.85,9.58c-2.42,2.29-5.11,3.93-8.06,4.94c-2.96,1.01-5.92,1.51-8.87,1.51
		h-13.71v17.74c2.95,0,5.34,0,7.16,0S701.64,523.45,702.58,523.45z"/>
	<path class="st1" d="M804.78,557.42c4.57,6.38,10.18,11.29,16.83,14.72c6.65,3.43,14.08,5.41,22.28,5.95v-19.96
		c-4.43-0.4-8.44-1.75-11.99-4.03c-3.56-2.28-6.62-5.75-9.17-10.38c-2.55-4.64-4.5-10.55-5.85-17.74
		c-1.34-7.19-2.02-15.96-2.02-26.31v-71.16h-24.59v73.58c0,11.96,1.28,22.58,3.83,31.85C796.65,543.21,800.21,551.04,804.78,557.42z
		"/>
	<path class="st1" d="M891.16,557.42c4.64-6.38,8.23-14.21,10.78-23.48c2.55-9.27,3.83-19.89,3.83-31.85v-73.58h-24.39v71.16
		c0,10.48-0.71,19.32-2.12,26.51c-1.41,7.19-3.4,13.07-5.95,17.64c-2.55,4.57-5.61,7.96-9.17,10.18c-3.56,2.22-7.56,3.6-11.99,4.13
		v19.96c8.2-0.54,15.59-2.52,22.17-5.95C880.91,568.71,886.53,563.8,891.16,557.42z"/>
	<path class="st1" d="M525.02,596.58c-0.4,0-0.7,0-0.91,0s-0.36,0.01-0.47,0.04c-0.11,0.03-0.18,0.08-0.23,0.16
		c-0.05,0.08-0.1,0.2-0.17,0.36c-0.49,1.2-1.03,2.5-1.6,3.9c-0.57,1.4-1.17,2.85-1.79,4.35s-1.25,3.03-1.9,4.58
		c-0.65,1.55-1.28,3.07-1.89,4.56c-0.61,1.49-1.2,2.91-1.77,4.28c-0.57,1.37-1.08,2.62-1.55,3.77c-0.48-1.15-1.01-2.4-1.58-3.77
		c-0.57-1.37-1.17-2.8-1.79-4.29c-0.62-1.49-1.25-3.02-1.9-4.57c-0.65-1.55-1.28-3.08-1.91-4.59s-1.23-2.96-1.81-4.36
		c-0.58-1.4-1.11-2.7-1.59-3.9c-0.11-0.23-0.22-0.37-0.35-0.43s-0.3-0.09-0.53-0.09h-0.88c-0.4,0.07-0.6,0.23-0.6,0.5
		c0,0.15,0.02,0.28,0.06,0.41c0.04,0.13,0.07,0.22,0.1,0.27l11.7,27.96c0.15,0.39,0.41,0.58,0.8,0.58h0.58
		c0.27,0,0.45-0.05,0.54-0.16c0.09-0.11,0.17-0.23,0.24-0.38l11.76-28.24c0.03-0.03,0.04-0.09,0.05-0.18s0.01-0.15,0.01-0.18
		C525.64,596.83,525.43,596.63,525.02,596.58z"/>
	<path class="st1" d="M531.76,596.56h-1.03c-0.24,0-0.42,0.07-0.55,0.2s-0.19,0.31-0.19,0.52v28.28c0,0.48,0.25,0.72,0.73,0.72h1.03
		c0.49,0,0.73-0.24,0.73-0.72v-28.28c0-0.23-0.07-0.4-0.21-0.53C532.15,596.62,531.97,596.56,531.76,596.56z"/>
	<path class="st1" d="M558.89,611.02c0.49-0.73,0.86-1.53,1.13-2.4c0.27-0.87,0.4-1.77,0.4-2.72c0-1.28-0.24-2.48-0.72-3.61
		c-0.48-1.13-1.14-2.11-1.97-2.96c-0.83-0.85-1.81-1.52-2.94-2.01s-2.34-0.75-3.63-0.76h-11.52c-0.21,0-0.37,0.05-0.46,0.15
		c-0.09,0.1-0.18,0.27-0.26,0.51v28.34c0,0.48,0.24,0.72,0.72,0.72h0.86c0.48,0,0.72-0.24,0.72-0.72V615.2h9.74
		c0.35,0,0.66-0.02,0.93-0.05s0.54-0.08,0.81-0.15l4.92,10.9c0.11,0.25,0.28,0.38,0.52,0.38c0.47,0,0.83,0,1.08-0.01
		s0.44-0.03,0.56-0.06s0.19-0.08,0.22-0.15c0.03-0.07,0.04-0.17,0.04-0.3c0-0.08-0.03-0.2-0.1-0.36l-5.02-11
		c0.81-0.36,1.56-0.83,2.23-1.41C557.82,612.41,558.4,611.75,558.89,611.02z M555.28,611.58c-0.59,0.43-1.23,0.76-1.92,1
		c-0.49,0.17-0.99,0.27-1.5,0.3c-0.51,0.03-1.02,0.04-1.54,0.04H550h-8.78v-14.08h9.88c0.99,0,1.91,0.19,2.76,0.56
		c0.85,0.37,1.6,0.88,2.23,1.52s1.13,1.39,1.49,2.25c0.36,0.86,0.54,1.77,0.54,2.73c0,0.77-0.12,1.52-0.35,2.22
		c-0.23,0.71-0.56,1.35-0.98,1.93C556.37,610.65,555.86,611.15,555.28,611.58z"/>
	<path class="st1" d="M585.52,596.56h-20.94c-0.23,0-0.4,0.06-0.53,0.19c-0.13,0.13-0.19,0.3-0.19,0.53v0.82
		c0,0.52,0.24,0.78,0.72,0.78h9.36v26.66c0,0.49,0.25,0.74,0.74,0.74h0.82c0.49,0,0.74-0.25,0.74-0.74v-26.66h9.28
		c0.27,0,0.47-0.07,0.6-0.22c0.13-0.15,0.2-0.33,0.2-0.56v-0.82c-0.03-0.24-0.11-0.42-0.25-0.54
		C585.93,596.62,585.74,596.56,585.52,596.56z"/>
	<path class="st1" d="M613.9,596.56h-0.76c-0.24,0-0.43,0.07-0.56,0.2c-0.13,0.13-0.2,0.31-0.2,0.52v17.09
		c0,1.41-0.24,2.73-0.72,3.96c-0.48,1.23-1.15,2.3-2.02,3.21c-0.87,0.91-1.91,1.63-3.12,2.16c-1.21,0.53-2.56,0.79-4.02,0.79
		c-1.44,0-2.77-0.26-3.97-0.79c-1.21-0.53-2.25-1.24-3.12-2.15c-0.87-0.91-1.55-1.98-2.04-3.21c-0.49-1.23-0.73-2.55-0.73-3.97
		v-17.09c0-0.21-0.08-0.39-0.23-0.52c-0.15-0.13-0.32-0.2-0.5-0.2h-0.87c-0.23,0-0.4,0.07-0.52,0.22c-0.12,0.15-0.18,0.31-0.18,0.5
		v17.3c0,1.12,0.15,2.2,0.44,3.24c0.29,1.04,0.7,2.01,1.23,2.91c0.53,0.9,1.16,1.72,1.9,2.46c0.74,0.74,1.56,1.38,2.46,1.91
		c0.9,0.53,1.87,0.94,2.91,1.23c1.04,0.29,2.12,0.43,3.24,0.43c1.68,0,3.26-0.3,4.73-0.91c1.47-0.61,2.76-1.45,3.86-2.52
		c1.1-1.07,1.97-2.35,2.61-3.82c0.64-1.47,0.97-3.08,0.98-4.83v-17.4c0-0.23-0.07-0.4-0.22-0.53
		C614.31,596.62,614.12,596.56,613.9,596.56z"/>
	<path class="st1" d="M644.81,625.32l-11.74-28.28c-0.08-0.12-0.17-0.24-0.26-0.36c-0.09-0.12-0.25-0.18-0.48-0.18h-0.08h-0.66
		h-0.08c-0.21,0-0.37,0.06-0.46,0.18c-0.09,0.12-0.17,0.25-0.24,0.4L619.58,624c-0.09,0.21-0.19,0.45-0.29,0.71
		c-0.1,0.26-0.2,0.54-0.29,0.85c-0.01,0.03-0.02,0.06-0.02,0.09s0,0.06,0,0.09c0,0.31,0.21,0.48,0.64,0.52h1.06
		c0.04,0.01,0.1,0.02,0.18,0.02c0.32,0,0.55-0.17,0.7-0.5c0.39-0.96,0.82-2.02,1.29-3.18c0.47-1.16,0.97-2.38,1.49-3.66h15.16
		l2.8,6.8c0.15,0.37,0.39,0.56,0.72,0.56c0.03,0,0.05,0,0.08-0.01s0.05-0.01,0.08-0.01h1.06c0.43-0.05,0.64-0.24,0.64-0.56
		c0-0.04-0.01-0.11-0.02-0.21C644.84,625.41,644.83,625.35,644.81,625.32z M625.38,616.44l6.58-15.98l6.52,15.98H625.38z"/>
	<path class="st1" d="M667.61,623.78h-15.62v-26.5c0-0.24-0.06-0.42-0.19-0.54c-0.13-0.12-0.3-0.18-0.53-0.18h-1.04
		c-0.24,0-0.42,0.07-0.55,0.2s-0.19,0.31-0.19,0.52v28.28c0,0.48,0.24,0.72,0.72,0.72h17.4c0.23,0,0.41-0.07,0.54-0.2
		c0.13-0.13,0.2-0.31,0.2-0.52v-1.04c0-0.24-0.07-0.42-0.2-0.55C668.02,623.84,667.84,623.78,667.61,623.78z"/>
	<path class="st1" d="M709.23,625.32l-11.74-28.28c-0.08-0.12-0.17-0.24-0.26-0.36c-0.09-0.12-0.25-0.18-0.48-0.18h-0.08h-0.66
		h-0.08c-0.21,0-0.37,0.06-0.46,0.18c-0.09,0.12-0.17,0.25-0.24,0.4L683.99,624c-0.09,0.21-0.19,0.45-0.29,0.71
		c-0.1,0.26-0.2,0.54-0.29,0.85c-0.01,0.03-0.02,0.06-0.02,0.09s0,0.06,0,0.09c0,0.31,0.21,0.48,0.64,0.52h1.06
		c0.04,0.01,0.1,0.02,0.18,0.02c0.32,0,0.55-0.17,0.7-0.5c0.39-0.96,0.82-2.02,1.29-3.18c0.47-1.16,0.97-2.38,1.49-3.66h15.16
		l2.8,6.8c0.15,0.37,0.39,0.56,0.72,0.56c0.03,0,0.05,0,0.08-0.01s0.05-0.01,0.08-0.01h1.06c0.43-0.05,0.64-0.24,0.64-0.56
		c0-0.04-0.01-0.11-0.02-0.21C709.26,625.41,709.25,625.35,709.23,625.32z M689.79,616.44l6.58-15.98l6.52,15.98H689.79z"/>
	<path class="st1" d="M732.74,613.46c-0.54-0.53-1.17-0.99-1.88-1.37s-1.47-0.71-2.27-1s-1.62-0.54-2.45-0.75s-1.64-0.41-2.41-0.6
		c-0.65-0.15-1.31-0.31-1.96-0.48s-1.28-0.37-1.87-0.59c-0.59-0.22-1.15-0.47-1.66-0.74c-0.51-0.27-0.96-0.59-1.34-0.96
		s-0.68-0.78-0.89-1.24c-0.21-0.46-0.32-0.99-0.32-1.59c0-0.77,0.16-1.51,0.49-2.2c0.33-0.69,0.82-1.3,1.47-1.82
		s1.47-0.93,2.44-1.23c0.97-0.3,2.11-0.45,3.42-0.45c0.91,0,1.73,0.08,2.47,0.25s1.42,0.39,2.03,0.67c0.61,0.28,1.18,0.6,1.69,0.96
		c0.51,0.36,1,0.74,1.47,1.14c0.29,0.25,0.53,0.38,0.7,0.38c0.08,0,0.16-0.03,0.24-0.1c0.08-0.07,0.18-0.15,0.3-0.26
		c0.27-0.25,0.47-0.45,0.6-0.59c0.13-0.14,0.2-0.26,0.2-0.37c0-0.11-0.04-0.21-0.13-0.31c-0.09-0.1-0.22-0.24-0.39-0.41
		c-1.23-1.21-2.62-2.12-4.17-2.71c-1.55-0.59-3.2-0.89-4.95-0.89c-1.56,0-2.97,0.19-4.24,0.56c-1.27,0.37-2.35,0.91-3.24,1.6
		c-0.89,0.69-1.58,1.53-2.07,2.52s-0.73,2.09-0.73,3.32c0,1.03,0.2,1.93,0.6,2.72s1.01,1.49,1.82,2.1c0.81,0.61,1.84,1.15,3.07,1.62
		c1.23,0.47,2.68,0.89,4.33,1.26c0.67,0.15,1.35,0.3,2.06,0.47c0.71,0.17,1.4,0.36,2.07,0.57c0.67,0.21,1.31,0.46,1.91,0.75
		c0.6,0.29,1.13,0.63,1.58,1.02s0.81,0.85,1.07,1.38s0.39,1.13,0.39,1.81c0,1.17-0.26,2.17-0.78,3c-0.52,0.83-1.2,1.5-2.04,2.03
		c-0.84,0.53-1.79,0.91-2.85,1.15c-1.06,0.24-2.13,0.36-3.21,0.36c-0.77,0-1.55-0.09-2.34-0.26c-0.79-0.17-1.56-0.43-2.31-0.76
		c-0.75-0.33-1.47-0.74-2.14-1.23c-0.67-0.49-1.29-1.04-1.85-1.67c-0.07-0.09-0.15-0.19-0.26-0.28c-0.11-0.09-0.23-0.14-0.38-0.14
		c-0.27,0-0.49,0.07-0.66,0.22c-0.17,0.15-0.39,0.35-0.66,0.62c-0.12,0.11-0.18,0.21-0.18,0.32c0,0.12,0.03,0.23,0.08,0.32
		c0.05,0.09,0.13,0.19,0.22,0.3c0.65,0.84,1.37,1.56,2.16,2.17c0.79,0.61,1.62,1.11,2.51,1.5c0.89,0.39,1.82,0.68,2.79,0.86
		c0.97,0.18,1.97,0.27,2.98,0.27c1.55,0,3-0.19,4.37-0.57c1.37-0.38,2.56-0.94,3.57-1.69c1.01-0.75,1.81-1.67,2.4-2.78
		c0.59-1.11,0.88-2.39,0.88-3.86c0-0.93-0.16-1.75-0.47-2.46C733.71,614.61,733.28,613.99,732.74,613.46z"/>
	<path class="st1" d="M758.92,613.46c-0.54-0.53-1.17-0.99-1.88-1.37s-1.47-0.71-2.27-1s-1.62-0.54-2.45-0.75s-1.64-0.41-2.41-0.6
		c-0.65-0.15-1.31-0.31-1.96-0.48s-1.28-0.37-1.87-0.59c-0.59-0.22-1.15-0.47-1.66-0.74c-0.51-0.27-0.96-0.59-1.34-0.96
		s-0.68-0.78-0.89-1.24c-0.21-0.46-0.32-0.99-0.32-1.59c0-0.77,0.16-1.51,0.49-2.2c0.33-0.69,0.82-1.3,1.47-1.82
		s1.47-0.93,2.44-1.23c0.97-0.3,2.11-0.45,3.42-0.45c0.91,0,1.73,0.08,2.47,0.25s1.42,0.39,2.03,0.67c0.61,0.28,1.18,0.6,1.69,0.96
		c0.51,0.36,1,0.74,1.47,1.14c0.29,0.25,0.53,0.38,0.7,0.38c0.08,0,0.16-0.03,0.24-0.1c0.08-0.07,0.18-0.15,0.3-0.26
		c0.27-0.25,0.47-0.45,0.6-0.59c0.13-0.14,0.2-0.26,0.2-0.37c0-0.11-0.04-0.21-0.13-0.31c-0.09-0.1-0.22-0.24-0.39-0.41
		c-1.23-1.21-2.62-2.12-4.17-2.71c-1.55-0.59-3.2-0.89-4.95-0.89c-1.56,0-2.97,0.19-4.24,0.56c-1.27,0.37-2.35,0.91-3.24,1.6
		c-0.89,0.69-1.58,1.53-2.07,2.52s-0.73,2.09-0.73,3.32c0,1.03,0.2,1.93,0.6,2.72s1.01,1.49,1.82,2.1c0.81,0.61,1.84,1.15,3.07,1.62
		c1.23,0.47,2.68,0.89,4.33,1.26c0.67,0.15,1.35,0.3,2.06,0.47c0.71,0.17,1.4,0.36,2.07,0.57c0.67,0.21,1.31,0.46,1.91,0.75
		c0.6,0.29,1.13,0.63,1.58,1.02s0.81,0.85,1.07,1.38s0.39,1.13,0.39,1.81c0,1.17-0.26,2.17-0.78,3c-0.52,0.83-1.2,1.5-2.04,2.03
		c-0.84,0.53-1.79,0.91-2.85,1.15c-1.06,0.24-2.13,0.36-3.21,0.36c-0.77,0-1.55-0.09-2.34-0.26c-0.79-0.17-1.56-0.43-2.31-0.76
		c-0.75-0.33-1.47-0.74-2.14-1.23c-0.67-0.49-1.29-1.04-1.85-1.67c-0.07-0.09-0.15-0.19-0.26-0.28c-0.11-0.09-0.23-0.14-0.38-0.14
		c-0.27,0-0.49,0.07-0.66,0.22c-0.17,0.15-0.39,0.35-0.66,0.62c-0.12,0.11-0.18,0.21-0.18,0.32c0,0.12,0.03,0.23,0.08,0.32
		c0.05,0.09,0.13,0.19,0.22,0.3c0.65,0.84,1.37,1.56,2.16,2.17c0.79,0.61,1.62,1.11,2.51,1.5c0.89,0.39,1.82,0.68,2.79,0.86
		c0.97,0.18,1.97,0.27,2.98,0.27c1.55,0,3-0.19,4.37-0.57c1.37-0.38,2.56-0.94,3.57-1.69c1.01-0.75,1.81-1.67,2.4-2.78
		c0.59-1.11,0.88-2.39,0.88-3.86c0-0.93-0.16-1.75-0.47-2.46C759.89,614.61,759.46,613.99,758.92,613.46z"/>
	<path class="st1" d="M767.94,596.56h-1.03c-0.24,0-0.42,0.07-0.55,0.2s-0.19,0.31-0.19,0.52v28.28c0,0.48,0.25,0.72,0.73,0.72h1.03
		c0.49,0,0.73-0.24,0.73-0.72v-28.28c0-0.23-0.07-0.4-0.21-0.53C768.33,596.62,768.15,596.56,767.94,596.56z"/>
	<path class="st1" d="M794.06,613.46c-0.54-0.53-1.17-0.99-1.88-1.37s-1.47-0.71-2.27-1s-1.62-0.54-2.45-0.75s-1.64-0.41-2.41-0.6
		c-0.65-0.15-1.31-0.31-1.96-0.48s-1.28-0.37-1.87-0.59c-0.59-0.22-1.15-0.47-1.66-0.74c-0.51-0.27-0.96-0.59-1.34-0.96
		s-0.68-0.78-0.89-1.24c-0.21-0.46-0.32-0.99-0.32-1.59c0-0.77,0.16-1.51,0.49-2.2c0.33-0.69,0.82-1.3,1.47-1.82
		s1.47-0.93,2.44-1.23c0.97-0.3,2.11-0.45,3.42-0.45c0.91,0,1.73,0.08,2.47,0.25s1.42,0.39,2.03,0.67c0.61,0.28,1.18,0.6,1.69,0.96
		c0.51,0.36,1,0.74,1.47,1.14c0.29,0.25,0.53,0.38,0.7,0.38c0.08,0,0.16-0.03,0.24-0.1c0.08-0.07,0.18-0.15,0.3-0.26
		c0.27-0.25,0.47-0.45,0.6-0.59c0.13-0.14,0.2-0.26,0.2-0.37c0-0.11-0.04-0.21-0.13-0.31c-0.09-0.1-0.22-0.24-0.39-0.41
		c-1.23-1.21-2.62-2.12-4.17-2.71c-1.55-0.59-3.2-0.89-4.95-0.89c-1.56,0-2.97,0.19-4.24,0.56c-1.27,0.37-2.35,0.91-3.24,1.6
		c-0.89,0.69-1.58,1.53-2.07,2.52s-0.73,2.09-0.73,3.32c0,1.03,0.2,1.93,0.6,2.72s1.01,1.49,1.82,2.1c0.81,0.61,1.84,1.15,3.07,1.62
		c1.23,0.47,2.68,0.89,4.33,1.26c0.67,0.15,1.35,0.3,2.06,0.47c0.71,0.17,1.4,0.36,2.07,0.57c0.67,0.21,1.31,0.46,1.91,0.75
		c0.6,0.29,1.13,0.63,1.58,1.02s0.81,0.85,1.07,1.38s0.39,1.13,0.39,1.81c0,1.17-0.26,2.17-0.78,3c-0.52,0.83-1.2,1.5-2.04,2.03
		c-0.84,0.53-1.79,0.91-2.85,1.15c-1.06,0.24-2.13,0.36-3.21,0.36c-0.77,0-1.55-0.09-2.34-0.26c-0.79-0.17-1.56-0.43-2.31-0.76
		c-0.75-0.33-1.47-0.74-2.14-1.23c-0.67-0.49-1.29-1.04-1.85-1.67c-0.07-0.09-0.15-0.19-0.26-0.28c-0.11-0.09-0.23-0.14-0.38-0.14
		c-0.27,0-0.49,0.07-0.66,0.22c-0.17,0.15-0.39,0.35-0.66,0.62c-0.12,0.11-0.18,0.21-0.18,0.32c0,0.12,0.03,0.23,0.08,0.32
		c0.05,0.09,0.13,0.19,0.22,0.3c0.65,0.84,1.37,1.56,2.16,2.17c0.79,0.61,1.62,1.11,2.51,1.5c0.89,0.39,1.82,0.68,2.79,0.86
		c0.97,0.18,1.97,0.27,2.98,0.27c1.55,0,3-0.19,4.37-0.57c1.37-0.38,2.56-0.94,3.57-1.69c1.01-0.75,1.81-1.67,2.4-2.78
		c0.59-1.11,0.88-2.39,0.88-3.86c0-0.93-0.16-1.75-0.47-2.46C795.03,614.61,794.6,613.99,794.06,613.46z"/>
	<path class="st1" d="M821.23,596.56h-20.94c-0.23,0-0.4,0.06-0.53,0.19c-0.13,0.13-0.19,0.3-0.19,0.53v0.82
		c0,0.52,0.24,0.78,0.72,0.78h9.36v26.66c0,0.49,0.25,0.74,0.74,0.74h0.82c0.49,0,0.74-0.25,0.74-0.74v-26.66h9.28
		c0.27,0,0.47-0.07,0.6-0.22c0.13-0.15,0.2-0.33,0.2-0.56v-0.82c-0.03-0.24-0.11-0.42-0.25-0.54S821.46,596.56,821.23,596.56z"/>
	<path class="st1" d="M850.49,625.32l-11.74-28.28c-0.08-0.12-0.17-0.24-0.26-0.36c-0.09-0.12-0.25-0.18-0.48-0.18h-0.08h-0.66
		h-0.08c-0.21,0-0.37,0.06-0.46,0.18c-0.09,0.12-0.17,0.25-0.24,0.4L825.25,624c-0.09,0.21-0.19,0.45-0.29,0.71
		c-0.1,0.26-0.2,0.54-0.29,0.85c-0.01,0.03-0.02,0.06-0.02,0.09s0,0.06,0,0.09c0,0.31,0.21,0.48,0.64,0.52h1.06
		c0.04,0.01,0.1,0.02,0.18,0.02c0.32,0,0.55-0.17,0.7-0.5c0.39-0.96,0.82-2.02,1.29-3.18c0.47-1.16,0.97-2.38,1.49-3.66h15.16
		l2.8,6.8c0.15,0.37,0.39,0.56,0.72,0.56c0.03,0,0.05,0,0.08-0.01c0.03-0.01,0.05-0.01,0.08-0.01h1.06
		c0.43-0.05,0.64-0.24,0.64-0.56c0-0.04-0.01-0.11-0.02-0.21C850.52,625.41,850.51,625.35,850.49,625.32z M831.05,616.44l6.58-15.98
		l6.52,15.98H831.05z"/>
	<path class="st1" d="M879.21,596.56h-0.9c-0.45,0-0.69,0.23-0.72,0.68v24.92c-1.57-1.99-3.22-4.05-4.93-6.2
		c-1.71-2.15-3.44-4.31-5.18-6.49c-1.74-2.18-3.46-4.34-5.17-6.49c-1.71-2.15-3.35-4.21-4.92-6.2c-0.11-0.13-0.23-0.2-0.38-0.2
		c-0.45,0-0.81,0-1.07,0.01c-0.26,0.01-0.45,0.03-0.58,0.07c-0.13,0.04-0.2,0.11-0.23,0.21c-0.03,0.1-0.04,0.24-0.04,0.43v28.26
		c0,0.48,0.24,0.72,0.72,0.72h0.84c0.49,0,0.74-0.24,0.74-0.72v-25.14l20.16,25.54c0.17,0.21,0.39,0.32,0.66,0.32h0.94
		c0.47,0,0.71-0.22,0.74-0.66V597.2C879.89,596.77,879.67,596.56,879.21,596.56z"/>
	<path class="st1" d="M906.72,596.74c-0.14-0.12-0.32-0.18-0.55-0.18h-20.94c-0.23,0-0.4,0.06-0.53,0.19
		c-0.13,0.13-0.19,0.3-0.19,0.53v0.82c0,0.52,0.24,0.78,0.72,0.78h9.36v26.66c0,0.49,0.25,0.74,0.74,0.74h0.82
		c0.49,0,0.74-0.25,0.74-0.74v-26.66h9.28c0.27,0,0.47-0.07,0.6-0.22c0.13-0.15,0.2-0.33,0.2-0.56v-0.82
		C906.95,597.04,906.86,596.86,906.72,596.74z"/>
</g>
</svg>
