<svg xmlns="http://www.w3.org/2000/svg" xmlns:xlink="http://www.w3.org/1999/xlink" width="1107.339" height="1126.506" viewBox="0 0 1107.339 1126.506">
  <defs>
    <filter id="Path_761" x="0" y="0" width="1107.339" height="1126.506" filterUnits="userSpaceOnUse">
      <feOffset dy="3" input="SourceAlpha"/>
      <feGaussianBlur stdDeviation="3" result="blur"/>
      <feFlood flood-opacity="0.09"/>
      <feComposite operator="in" in2="blur"/>
      <feComposite in="SourceGraphic"/>
    </filter>
  </defs>
  <g id="Contact_Form_Background" data-name="Contact Form Background" transform="translate(787.543 1114.506) rotate(-159)">
    <g id="Group_504" data-name="Group 504" transform="translate(0 0)">
      <g transform="matrix(-0.93, 0.36, -0.36, -0.93, 1134.64, 758.25)" filter="url(#Path_761)">
        <path id="Path_761-2" data-name="Path 761" d="M725.245,65.946c67.654,43.429,98.425,144.255,106.5,241.59s-6.33,191.176-41.247,293.311S700.365,813.629,613.508,851.384c-87.077,37.974-205.8,3.056-295.059-54.559-89.04-57.615-148.838-138.145-204.706-225.44S5.715,389.811.477,283.747C-4.979,177.685,36.486,59.617,118.763,18.807,201.257-22,324.561,14.661,438.7,25.791S657.592,22.517,725.245,65.946Z" transform="translate(787.54 1114.51) rotate(-159)" fill="#47aee1"/>
      </g>
    </g>
  </g>
</svg>
